<svg width="710" height="710" viewBox="0 0 710 710" fill="none" xmlns="http://www.w3.org/2000/svg">
<rect width="710" height="710" fill="#FDDA16"/>
<path d="M261.04 373.637C260.394 373.189 259.548 373.289 259.051 373.886C252.387 381.644 245.076 383.683 237.517 383.683C220.26 383.683 209.965 371.896 209.965 357.474C209.965 343.052 221.503 331.265 235.627 331.265C247.364 331.265 256.017 338.178 259.747 348.124C259.996 348.821 259.499 349.616 258.703 349.616H232.046C231.201 349.616 230.555 350.263 230.555 351.108V363.84C230.555 364.685 231.201 365.332 232.046 365.332H260.245H281.082C282.077 365.332 282.873 364.635 283.022 363.641C283.37 361.502 283.519 359.563 283.519 357.474C283.519 331.812 262.035 311.124 235.826 311.124C209.617 311.124 188.133 331.812 188.133 357.474C188.133 383.136 209.617 403.824 235.826 403.824C252.934 403.824 266.312 396.812 275.264 385.473C275.662 384.976 275.562 384.28 275.065 383.882L261.04 373.637Z" fill="black"/>
<path d="M323.604 370.753V274.322C323.604 273.476 322.957 272.83 322.112 272.83H301.224C300.379 272.83 299.732 273.476 299.732 274.322V368.415C299.732 391.59 307.49 401.984 330.914 401.984H333.6C334.694 401.984 335.589 401.089 335.589 399.995V383.235C335.589 382.39 334.943 381.743 334.097 381.743H333.749C327.682 381.743 323.604 379.058 323.604 370.753Z" fill="black"/>
<path d="M373.336 370.753V274.322C373.336 273.476 372.689 272.83 371.844 272.83H350.956C350.111 272.83 349.464 273.476 349.464 274.322V368.415C349.464 391.59 357.223 401.984 380.646 401.984H383.332C384.426 401.984 385.321 401.089 385.321 399.995V383.235C385.321 382.39 384.675 381.743 383.829 381.743H383.481C377.414 381.743 373.336 379.058 373.336 370.753Z" fill="black"/>
<path d="M100.505 436.25V418.197C100.505 417.352 101.151 416.705 101.997 416.705H110.252C115.474 416.705 120.199 411.732 122.586 406.759C122.586 406.709 122.636 406.659 122.636 406.609L123.58 403.725C123.978 402.581 123.929 401.338 123.431 400.244L86.1321 314.356C85.6845 313.361 86.4305 312.267 87.5246 312.267H108.959C109.755 312.267 110.451 312.715 110.75 313.461L136.362 370.205C136.71 371.001 137.854 371.001 138.202 370.205L162.073 313.56C162.372 312.814 163.118 312.367 163.913 312.367H185.597C186.691 312.367 187.387 313.461 186.989 314.456L143.424 415.76C137.903 429.188 125.271 437.841 110.302 437.841H102.046C101.201 437.742 100.505 437.095 100.505 436.25Z" fill="black"/>
<path d="M494.732 312.367H516.067C516.863 312.367 517.609 312.864 517.907 313.61L551.974 399.349C552.372 400.343 551.626 401.388 550.582 401.388H530.291C529.495 401.388 528.749 400.89 528.451 400.144L493.389 314.406C492.942 313.411 493.638 312.367 494.732 312.367Z" fill="black"/>
<path d="M543.669 312.367H565.004C565.8 312.367 566.546 312.864 566.844 313.61L600.911 399.349C601.308 400.343 600.562 401.388 599.518 401.388H579.227C578.432 401.388 577.686 400.89 577.387 400.144L542.326 314.406C541.928 313.411 542.624 312.367 543.669 312.367Z" fill="black"/>
<path d="M623.887 332.26L616.079 313.56C615.78 312.814 615.035 312.317 614.239 312.317H592.953C591.859 312.317 591.163 313.411 591.561 314.406L599.568 333.105C599.866 333.851 600.612 334.299 601.408 334.299H622.494C623.588 334.349 624.285 333.254 623.887 332.26Z" fill="black"/>
<path d="M450.819 346.831H433.462C432.268 346.831 431.274 347.826 431.274 349.019V364.984C431.274 366.177 432.268 367.172 433.462 367.172H450.819C452.012 367.172 453.007 366.177 453.007 364.984V349.019C453.007 347.826 452.012 346.831 450.819 346.831Z" fill="black"/>
<path d="M416.354 347.528C417.349 347.528 418.194 346.931 418.642 346.036C422.67 337.233 431.721 330.917 442.016 330.917C452.36 330.917 461.412 336.984 465.39 345.986C465.788 346.881 466.683 347.478 467.678 347.478H486.974C488.018 347.478 488.715 346.632 488.416 345.588C483.095 325.596 464.594 310.626 442.066 310.626C419.537 310.626 400.987 325.546 395.715 345.588C395.467 346.632 396.113 347.478 397.158 347.478H416.354V347.528Z" fill="black"/>
<path d="M467.827 366.724C466.832 366.724 465.937 367.321 465.539 368.216C461.511 377.218 452.46 383.285 442.165 383.285C431.871 383.285 422.819 376.969 418.791 368.166C418.393 367.271 417.498 366.674 416.503 366.674H397.307C396.262 366.674 395.566 367.52 395.865 368.564C401.186 388.557 419.686 403.526 442.215 403.526C464.744 403.526 483.294 388.606 488.565 368.564C488.814 367.52 488.168 366.674 487.123 366.674H467.827V366.724Z" fill="black"/>
</svg>
